# xmcd CD database file
#
# Track frame offsets:
#	150
#	16817
#	43898
#	75458
#	113054
#	145682
#	179303
#	208048
#	243046
#
# Disc length: 3627 seconds
#
# Revision: 0
# Processed by: cddbd v1.5PL3 Copyright (c) Steve Scherf et al.
# Submitted via: CDex 1.50
#
DISCID=6a0e2909
DTITLE=Joe Sealy and Paul Novotny - Blue Jade
DYEAR=1999
DGENRE=Jazz
TTITLE0=Alone Together
TTITLE1=Mustang Sealy
TTITLE2=Blue Jade
TTITLE3=A Quiet Place
TTITLE4=Winter Waltz
TTITLE5=Jazz Dance
TTITLE6=Vida Feliz
TTITLE7=Super Snoop
TTITLE8=Someone to Watch Over Me
EXTD=YEAR: 1999
EXTT0=
EXTT1=
EXTT2=
EXTT3=
EXTT4=
EXTT5=
EXTT6=
EXTT7=
EXTT8=
PLAYORDER=
